<svg xmlns="http://www.w3.org/2000/svg" xmlns:xlink="http://www.w3.org/1999/xlink" width="500" zoomAndPan="magnify" viewBox="0 0 375 374.999991" height="500" preserveAspectRatio="xMidYMid meet" version="1.0"><defs><g/><clipPath id="aa159cc113"><path d="M 0 0 L 374.882812 0 L 374.882812 226.5 L 0 226.5 Z M 0 0 " clip-rule="nonzero"/></clipPath></defs><rect x="-37.5" width="450" fill="#ffffff" y="-37.499999" height="449.999989" fill-opacity="1"/><rect x="-37.5" width="450" fill="#ffffff" y="-37.499999" height="449.999989" fill-opacity="1"/><g fill="#081c47" fill-opacity="1"><g transform="translate(78.099374, 336.893253)"><g><path d="M 8.03125 -70.25 L 25.59375 -70.25 L 41.65625 -41.140625 C 42.789062 -39.066406 43.640625 -37.378906 44.203125 -36.078125 C 44.773438 -34.773438 45.226562 -33.753906 45.5625 -33.015625 C 45.894531 -32.148438 46.097656 -31.515625 46.171875 -31.109375 L 47.171875 -31.109375 C 47.234375 -31.515625 47.429688 -32.148438 47.765625 -33.015625 C 48.097656 -33.753906 48.550781 -34.773438 49.125 -36.078125 C 49.695312 -37.378906 50.550781 -39.066406 51.6875 -41.140625 L 67.75 -70.25 L 85.3125 -70.25 L 85.3125 0 L 71.25 0 L 71.25 -38.140625 C 71.25 -40.347656 71.300781 -42.171875 71.40625 -43.609375 C 71.507812 -45.046875 71.625 -46.234375 71.75 -47.171875 C 71.882812 -48.242188 72.054688 -49.078125 72.265625 -49.671875 L 71.25 -49.671875 C 70.988281 -49.078125 70.585938 -48.242188 70.046875 -47.171875 C 69.578125 -46.234375 68.957031 -45.046875 68.1875 -43.609375 C 67.425781 -42.171875 66.441406 -40.347656 65.234375 -38.140625 L 51.6875 -13.75 L 41.65625 -13.75 L 28.09375 -38.140625 C 26.820312 -40.347656 25.816406 -42.171875 25.078125 -43.609375 C 24.347656 -45.046875 23.75 -46.234375 23.28125 -47.171875 C 22.75 -48.242188 22.347656 -49.078125 22.078125 -49.671875 L 21.078125 -49.671875 C 21.210938 -49.078125 21.378906 -48.242188 21.578125 -47.171875 C 21.710938 -46.234375 21.828125 -45.046875 21.921875 -43.609375 C 22.023438 -42.171875 22.078125 -40.347656 22.078125 -38.140625 L 22.078125 0 L 8.03125 0 Z M 8.03125 -70.25 "/></g></g></g><g fill="#081c47" fill-opacity="1"><g transform="translate(191.507284, 336.893253)"><g><path d="M 12.546875 1 C 10.003906 1 8.03125 0.316406 6.625 -1.046875 C 5.21875 -2.421875 4.515625 -4.242188 4.515625 -6.515625 C 4.515625 -8.796875 5.21875 -10.617188 6.625 -11.984375 C 8.03125 -13.359375 10.003906 -14.046875 12.546875 -14.046875 C 15.085938 -14.046875 17.0625 -13.359375 18.46875 -11.984375 C 19.875 -10.617188 20.578125 -8.796875 20.578125 -6.515625 C 20.578125 -4.242188 19.875 -2.421875 18.46875 -1.046875 C 17.0625 0.316406 15.085938 1 12.546875 1 Z M 12.546875 1 "/></g></g></g><g fill="#081c47" fill-opacity="1"><g transform="translate(236.670863, 336.893253)"><g><path d="M 29.609375 1.5 C 25.117188 1.5 21.164062 0.863281 17.75 -0.40625 C 14.34375 -1.675781 11.46875 -3.078125 9.125 -4.609375 C 6.382812 -6.421875 4.007812 -8.5 2 -10.84375 L 9.53125 -20.375 C 11 -18.5625 12.707031 -16.988281 14.65625 -15.65625 C 16.320312 -14.519531 18.3125 -13.46875 20.625 -12.5 C 22.9375 -11.53125 25.597656 -11.046875 28.609375 -11.046875 C 32.816406 -11.046875 35.925781 -11.945312 37.9375 -13.75 C 39.945312 -15.550781 40.953125 -17.828125 40.953125 -20.578125 C 40.953125 -22.578125 40.0625 -24.160156 38.28125 -25.328125 C 36.507812 -26.503906 34.285156 -27.5625 31.609375 -28.5 C 28.929688 -29.4375 26.050781 -30.40625 22.96875 -31.40625 C 19.894531 -32.414062 17.019531 -33.707031 14.34375 -35.28125 C 11.675781 -36.851562 9.453125 -38.875 7.671875 -41.34375 C 5.898438 -43.820312 5.015625 -47.035156 5.015625 -50.984375 C 5.015625 -53.796875 5.597656 -56.453125 6.765625 -58.953125 C 7.941406 -61.460938 9.597656 -63.671875 11.734375 -65.578125 C 13.878906 -67.484375 16.503906 -68.988281 19.609375 -70.09375 C 22.722656 -71.195312 26.222656 -71.75 30.109375 -71.75 C 34.054688 -71.75 37.566406 -71.25 40.640625 -70.25 C 43.722656 -69.25 46.300781 -67.894531 48.375 -66.1875 C 50.445312 -64.476562 52.019531 -62.503906 53.09375 -60.265625 C 54.164062 -58.023438 54.703125 -55.664062 54.703125 -53.1875 C 54.703125 -52.382812 54.648438 -51.613281 54.546875 -50.875 C 54.441406 -50.144531 54.320312 -49.507812 54.1875 -48.96875 C 53.988281 -48.300781 53.820312 -47.703125 53.6875 -47.171875 L 39.640625 -47.171875 C 39.773438 -47.503906 39.910156 -47.867188 40.046875 -48.265625 C 40.179688 -48.609375 40.28125 -49.015625 40.34375 -49.484375 C 40.40625 -49.953125 40.4375 -50.453125 40.4375 -50.984375 C 40.4375 -53.460938 39.566406 -55.484375 37.828125 -57.046875 C 36.085938 -58.617188 33.515625 -59.40625 30.109375 -59.40625 C 26.960938 -59.40625 24.46875 -58.550781 22.625 -56.84375 C 20.789062 -55.144531 19.875 -53.191406 19.875 -50.984375 C 19.875 -48.972656 20.757812 -47.363281 22.53125 -46.15625 C 24.300781 -44.957031 26.507812 -43.890625 29.15625 -42.953125 C 31.800781 -42.015625 34.675781 -41.0625 37.78125 -40.09375 C 40.894531 -39.125 43.769531 -37.851562 46.40625 -36.28125 C 49.050781 -34.707031 51.257812 -32.679688 53.03125 -30.203125 C 54.8125 -27.734375 55.703125 -24.523438 55.703125 -20.578125 C 55.703125 -17.429688 55.113281 -14.519531 53.9375 -11.84375 C 52.769531 -9.164062 51.082031 -6.835938 48.875 -4.859375 C 46.664062 -2.890625 43.9375 -1.335938 40.6875 -0.203125 C 37.445312 0.929688 33.753906 1.5 29.609375 1.5 Z M 29.609375 1.5 "/></g></g></g><g clip-path="url(#aa159cc113)"><path fill="#f575a0" d="M 285.914062 39.304688 C 288.148438 50.578125 292.082031 76.867188 287.285156 104.964844 C 287.28125 104.976562 287.28125 104.996094 287.277344 105.007812 C 274.464844 108.171875 262.710938 112.863281 252.257812 119.015625 C 247.066406 122.074219 242.054688 125.554688 237.242188 129.453125 C 238.15625 123.316406 238.617188 117.222656 238.617188 111.1875 C 238.617188 98.046875 236.375 84.453125 231.957031 70.726562 C 252.636719 53.125 275.582031 43.207031 285.914062 39.304688 Z M 154.28125 70.5 C 154.652344 69.4375 155.039062 68.386719 155.433594 67.34375 C 164.980469 41.957031 180.199219 22.179688 187.324219 13.761719 C 194.457031 22.175781 209.675781 41.945312 219.238281 67.429688 C 219.617188 68.4375 219.992188 69.449219 220.347656 70.476562 C 220.65625 71.34375 220.949219 72.210938 221.234375 73.078125 C 221.886719 75.050781 222.484375 77.023438 223.035156 78.988281 C 226.121094 89.949219 227.691406 100.746094 227.691406 111.1875 C 227.691406 121.414062 226.226562 131.847656 223.339844 142.425781 C 222.097656 146.976562 220.59375 151.550781 218.816406 156.148438 C 215.660156 164.335938 211.667969 172.585938 206.847656 180.882812 C 203.296875 186.984375 199.695312 192.394531 196.414062 196.953125 C 195.019531 198.890625 193.6875 200.671875 192.4375 202.289062 C 191.773438 203.148438 191.132812 203.960938 190.523438 204.726562 C 190.203125 205.125 189.890625 205.511719 189.59375 205.882812 C 189.589844 205.886719 189.585938 205.890625 189.585938 205.890625 C 188.761719 206.902344 188.003906 207.8125 187.316406 208.621094 C 187.183594 208.460938 187.042969 208.296875 186.886719 208.109375 C 186.328125 207.445312 185.765625 206.765625 185.203125 206.078125 C 185.183594 206.050781 185.160156 206.023438 185.140625 205.996094 C 184.832031 205.621094 184.527344 205.238281 184.21875 204.851562 C 183.632812 204.121094 183.046875 203.378906 182.460938 202.625 C 181.863281 201.855469 181.269531 201.082031 180.679688 200.296875 C 180.671875 200.28125 180.660156 200.269531 180.648438 200.253906 C 180.527344 200.097656 180.40625 199.933594 180.285156 199.769531 L 180.105469 199.527344 C 179.902344 199.253906 179.695312 198.972656 179.488281 198.695312 C 179.480469 198.683594 179.472656 198.671875 179.464844 198.660156 C 179.324219 198.472656 179.183594 198.28125 179.027344 198.0625 C 178.808594 197.761719 178.589844 197.457031 178.371094 197.15625 C 176.632812 194.75 174.925781 192.273438 173.292969 189.777344 C 173.128906 189.53125 172.96875 189.28125 172.804688 189.03125 C 172.796875 189.015625 172.785156 189 172.777344 188.984375 C 172.621094 188.746094 172.464844 188.503906 172.296875 188.246094 L 172.25 188.171875 C 172.121094 187.96875 171.988281 187.765625 171.863281 187.5625 C 171.847656 187.539062 171.835938 187.519531 171.824219 187.5 C 171.648438 187.230469 171.476562 186.957031 171.292969 186.664062 C 171.191406 186.503906 171.09375 186.347656 170.996094 186.1875 L 170.808594 185.890625 C 170.308594 185.082031 169.804688 184.265625 169.296875 183.417969 C 169.136719 183.15625 168.976562 182.894531 168.820312 182.625 C 168.816406 182.613281 168.804688 182.601562 168.800781 182.585938 C 167.40625 180.25 166.0625 177.878906 164.808594 175.546875 C 164.640625 175.242188 164.476562 174.933594 164.3125 174.625 L 163.339844 172.761719 C 162.460938 171.0625 161.667969 169.464844 160.910156 167.875 L 160.792969 167.632812 C 160.691406 167.421875 160.589844 167.207031 160.480469 166.972656 C 158.753906 163.296875 157.179688 159.601562 155.773438 155.929688 C 155.078125 154.117188 154.421875 152.308594 153.8125 150.511719 C 153.808594 150.5 153.804688 150.488281 153.800781 150.472656 C 153.695312 150.171875 153.59375 149.871094 153.492188 149.570312 C 152.96875 147.988281 152.476562 146.417969 152.03125 144.898438 C 151.816406 144.160156 151.605469 143.417969 151.398438 142.675781 C 151.363281 142.546875 151.324219 142.414062 151.289062 142.285156 C 151.21875 142.015625 151.144531 141.746094 151.074219 141.484375 L 151.019531 141.269531 C 150.933594 140.953125 150.851562 140.640625 150.765625 140.308594 C 150.578125 139.574219 150.398438 138.839844 150.222656 138.09375 C 149.351562 134.445312 148.652344 130.804688 148.136719 127.25 C 148.097656 126.988281 148.0625 126.726562 148.023438 126.449219 C 147.664062 123.871094 147.390625 121.242188 147.210938 118.617188 C 147.164062 117.917969 147.125 117.277344 147.097656 116.65625 C 147.09375 116.601562 147.089844 116.546875 147.085938 116.496094 C 147.078125 116.402344 147.078125 116.308594 147.070312 116.191406 C 147.035156 115.449219 147.007812 114.683594 146.992188 113.90625 C 146.988281 113.894531 146.988281 113.878906 146.988281 113.863281 C 146.964844 113.050781 146.953125 112.175781 146.953125 111.1875 C 146.953125 100.714844 148.527344 89.886719 151.628906 78.890625 C 152.183594 76.929688 152.785156 74.960938 153.433594 72.988281 C 153.707031 72.160156 153.988281 71.332031 154.28125 70.5 Z M 87.476562 104.964844 C 82.679688 76.863281 86.617188 50.566406 88.855469 39.300781 C 99.15625 43.183594 122.007812 53.050781 142.707031 70.644531 C 138.277344 84.402344 136.023438 98.023438 136.023438 111.1875 C 136.023438 112.273438 136.039062 113.25 136.066406 114.167969 C 136.085938 115.027344 136.113281 115.886719 136.15625 116.722656 C 136.160156 116.886719 136.171875 117.054688 136.179688 117.21875 C 136.214844 117.914062 136.253906 118.625 136.308594 119.375 C 136.507812 122.246094 136.804688 125.136719 137.199219 127.949219 C 137.242188 128.25 137.28125 128.554688 137.324219 128.835938 C 137.351562 129.011719 137.378906 129.1875 137.40625 129.359375 C 132.628906 125.503906 127.660156 122.050781 122.503906 119.015625 C 112.054688 112.863281 100.300781 108.171875 87.484375 105.007812 C 87.480469 104.996094 87.480469 104.976562 87.476562 104.964844 Z M 169.816406 214.191406 C 169.605469 214.21875 169.390625 214.242188 169.175781 214.261719 C 169.175781 214.261719 169.140625 214.269531 169.136719 214.269531 L 168.996094 214.28125 C 168.628906 214.324219 168.253906 214.363281 167.878906 214.402344 C 167.863281 214.40625 167.847656 214.40625 167.832031 214.40625 C 167.601562 214.433594 167.375 214.457031 167.140625 214.476562 C 167.125 214.480469 167.113281 214.480469 167.101562 214.484375 C 166.957031 214.496094 166.8125 214.507812 166.667969 214.519531 C 163.496094 214.832031 160.273438 215.074219 157.066406 215.230469 C 156.769531 215.246094 156.46875 215.261719 156.167969 215.269531 C 156.152344 215.273438 156.136719 215.273438 156.117188 215.273438 C 155.832031 215.289062 155.550781 215.304688 155.234375 215.3125 C 154.964844 215.324219 154.695312 215.335938 154.425781 215.34375 C 154.402344 215.34375 154.382812 215.347656 154.359375 215.347656 C 154.035156 215.359375 153.714844 215.367188 153.367188 215.378906 C 153.183594 215.386719 153 215.390625 152.8125 215.394531 L 152.457031 215.40625 C 151.511719 215.425781 150.550781 215.449219 149.578125 215.457031 C 149.574219 215.457031 149.535156 215.457031 149.53125 215.457031 C 149.234375 215.464844 148.9375 215.464844 148.640625 215.464844 C 148.625 215.464844 148.609375 215.464844 148.597656 215.464844 C 145.871094 215.480469 143.152344 215.441406 140.511719 215.34375 C 140.167969 215.328125 139.820312 215.316406 139.460938 215.304688 C 139.222656 215.289062 138.988281 215.28125 138.75 215.269531 L 138.410156 215.253906 C 138.066406 215.234375 137.714844 215.21875 137.371094 215.199219 C 135.453125 215.09375 133.675781 214.972656 131.929688 214.820312 L 131.703125 214.800781 C 131.453125 214.777344 131.207031 214.757812 130.9375 214.730469 C 124.898438 214.175781 118.996094 213.308594 113.382812 212.144531 C 113.371094 212.144531 113.355469 212.140625 113.34375 212.136719 C 113.03125 212.074219 112.71875 212.011719 112.410156 211.945312 C 110.785156 211.59375 109.183594 211.222656 107.648438 210.839844 C 106.902344 210.652344 106.15625 210.457031 105.410156 210.257812 C 105.007812 210.152344 104.609375 210.039062 104.21875 209.933594 L 104.027344 209.875 C 103.707031 209.789062 103.386719 209.699219 103.050781 209.601562 C 102.324219 209.390625 101.601562 209.175781 100.875 208.953125 C 97.289062 207.851562 93.796875 206.609375 90.476562 205.253906 C 90.230469 205.152344 89.988281 205.054688 89.730469 204.945312 C 87.328125 203.949219 84.925781 202.851562 82.578125 201.675781 C 81.941406 201.359375 81.367188 201.070312 80.828125 200.78125 C 80.785156 200.761719 80.742188 200.738281 80.699219 200.714844 C 80.613281 200.675781 80.527344 200.628906 80.414062 200.570312 C 79.757812 200.222656 79.082031 199.859375 78.410156 199.484375 C 78.398438 199.472656 78.386719 199.46875 78.371094 199.460938 C 77.65625 199.066406 76.894531 198.632812 76.050781 198.136719 C 64.746094 191.480469 54.210938 182.414062 44.730469 171.1875 C 26.351562 149.417969 16.414062 124.765625 12.628906 113.917969 C 23.929688 111.957031 50.242188 108.667969 78.144531 114.140625 C 78.164062 114.144531 78.179688 114.148438 78.195312 114.152344 C 80.171875 114.539062 82.121094 114.96875 84.046875 115.433594 C 86.089844 115.921875 88.105469 116.457031 90.089844 117.03125 C 99.847656 119.859375 108.855469 123.675781 116.964844 128.449219 C 125.71875 133.601562 133.917969 140.105469 141.519531 147.898438 C 141.53125 147.925781 141.539062 147.957031 141.546875 147.988281 C 142.027344 149.621094 142.554688 151.316406 143.121094 153.023438 C 143.238281 153.367188 143.351562 153.710938 143.472656 154.054688 C 145.445312 159.867188 147.84375 165.785156 150.585938 171.617188 C 150.699219 171.863281 150.816406 172.105469 150.933594 172.355469 L 151.046875 172.585938 C 151.851562 174.28125 152.699219 175.984375 153.632812 177.792969 L 154.667969 179.769531 C 154.839844 180.09375 155.015625 180.421875 155.1875 180.742188 C 156.515625 183.207031 157.929688 185.703125 159.398438 188.171875 C 159.578125 188.476562 159.761719 188.78125 159.933594 189.070312 C 160.464844 189.949219 160.996094 190.8125 161.539062 191.6875 L 161.71875 191.976562 C 161.835938 192.164062 161.953125 192.351562 162.058594 192.515625 C 162.238281 192.804688 162.421875 193.09375 162.609375 193.386719 C 162.761719 193.632812 162.917969 193.871094 163.074219 194.113281 L 163.105469 194.164062 C 163.285156 194.445312 163.464844 194.722656 163.644531 194.996094 C 163.816406 195.265625 163.988281 195.53125 164.160156 195.785156 C 165.957031 198.53125 167.839844 201.253906 169.742188 203.882812 C 169.890625 204.085938 170.035156 204.292969 170.183594 204.496094 C 170.351562 204.726562 170.515625 204.953125 170.683594 205.175781 C 170.902344 205.476562 171.121094 205.773438 171.339844 206.066406 L 171.511719 206.292969 C 171.660156 206.496094 171.8125 206.699219 171.964844 206.898438 C 173.519531 208.964844 175.09375 210.972656 176.671875 212.914062 C 176.757812 213.023438 176.847656 213.132812 176.933594 213.242188 C 174.636719 213.59375 172.269531 213.910156 169.863281 214.1875 C 169.847656 214.1875 169.832031 214.191406 169.816406 214.191406 Z M 296.351562 199.484375 C 295.679688 199.859375 295 200.226562 294.320312 200.582031 C 294.238281 200.628906 294.15625 200.671875 294.070312 200.714844 C 294.023438 200.734375 293.976562 200.761719 293.933594 200.78125 C 293.394531 201.070312 292.824219 201.359375 292.179688 201.683594 C 289.835938 202.851562 287.429688 203.949219 285.015625 204.949219 C 284.773438 205.050781 284.53125 205.152344 284.265625 205.257812 C 280.964844 206.609375 277.476562 207.851562 273.886719 208.953125 C 273.160156 209.175781 272.4375 209.390625 271.691406 209.605469 C 271.375 209.695312 271.066406 209.785156 270.75 209.875 L 270.558594 209.925781 C 270.15625 210.039062 269.753906 210.152344 269.351562 210.257812 C 268.609375 210.457031 267.863281 210.652344 267.105469 210.839844 C 265.578125 211.222656 263.980469 211.59375 262.359375 211.941406 C 262.042969 212.011719 261.730469 212.074219 261.417969 212.136719 C 261.40625 212.140625 261.394531 212.144531 261.378906 212.144531 C 255.769531 213.308594 249.863281 214.175781 243.804688 214.734375 C 243.554688 214.757812 243.304688 214.777344 243.058594 214.800781 L 242.828125 214.820312 C 241.089844 214.972656 239.3125 215.09375 237.390625 215.199219 C 237.050781 215.21875 236.710938 215.234375 236.375 215.253906 L 236.011719 215.269531 C 235.773438 215.28125 235.539062 215.289062 235.296875 215.304688 C 234.949219 215.316406 234.597656 215.328125 234.25 215.34375 C 231.609375 215.441406 228.894531 215.484375 226.164062 215.464844 C 226.15625 215.464844 226.144531 215.464844 226.132812 215.464844 C 226.128906 215.464844 226.125 215.464844 226.121094 215.464844 C 225.824219 215.464844 225.527344 215.464844 225.230469 215.457031 C 225.226562 215.457031 225.191406 215.457031 225.183594 215.457031 C 224.210938 215.449219 223.253906 215.425781 222.332031 215.40625 L 221.949219 215.394531 C 221.765625 215.390625 221.578125 215.386719 221.363281 215.378906 C 221.046875 215.367188 220.726562 215.359375 220.40625 215.347656 C 220.378906 215.347656 220.359375 215.34375 220.335938 215.34375 C 220.066406 215.335938 219.800781 215.324219 219.5 215.308594 C 219.214844 215.304688 218.929688 215.289062 218.644531 215.273438 C 218.625 215.273438 218.609375 215.273438 218.59375 215.269531 C 218.292969 215.261719 217.992188 215.246094 217.695312 215.230469 C 214.492188 215.074219 211.265625 214.832031 208.097656 214.519531 C 207.953125 214.507812 207.804688 214.496094 207.660156 214.484375 C 207.648438 214.480469 207.632812 214.480469 207.625 214.476562 C 207.394531 214.457031 207.160156 214.433594 206.929688 214.40625 C 206.914062 214.40625 206.898438 214.40625 206.882812 214.402344 C 206.507812 214.363281 206.136719 214.324219 205.765625 214.28125 L 205.578125 214.261719 C 205.367188 214.242188 205.152344 214.214844 204.949219 214.191406 C 204.933594 214.191406 204.914062 214.1875 204.898438 214.1875 C 202.460938 213.90625 200.058594 213.582031 197.726562 213.222656 C 197.792969 213.144531 197.859375 213.0625 197.925781 212.984375 C 199.945312 210.507812 202.304688 207.484375 204.851562 203.960938 C 208.429688 199.027344 212.378906 193.121094 216.292969 186.386719 C 223.769531 173.523438 229.382812 160.707031 233.113281 148.023438 C 240.753906 140.175781 248.996094 133.632812 257.796875 128.449219 C 265.90625 123.675781 274.917969 119.859375 284.675781 117.03125 C 286.65625 116.457031 288.667969 115.921875 290.714844 115.433594 C 292.640625 114.96875 294.589844 114.539062 296.566406 114.152344 C 296.585938 114.148438 296.601562 114.144531 296.617188 114.140625 C 324.523438 108.667969 350.832031 111.957031 362.132812 113.917969 C 358.347656 124.769531 348.40625 149.417969 330.035156 171.1875 C 320.554688 182.414062 310.019531 191.480469 298.714844 198.136719 C 297.867188 198.632812 297.109375 199.070312 296.390625 199.460938 C 296.378906 199.46875 296.363281 199.472656 296.351562 199.484375 Z M 373.929688 106.972656 C 373.183594 105.695312 371.949219 104.78125 370.511719 104.429688 C 369.085938 104.082031 336.304688 96.28125 298.714844 102.636719 C 304.175781 64.796875 295.5625 32.105469 295.179688 30.683594 C 294.792969 29.253906 293.847656 28.039062 292.554688 27.324219 C 291.265625 26.605469 289.734375 26.441406 288.320312 26.871094 C 286.953125 27.285156 256.492188 36.683594 228 59.789062 C 214.296875 25.757812 192.238281 2.75 191.242188 1.722656 C 190.214844 0.660156 188.800781 0.0625 187.320312 0.0625 C 185.84375 0.0625 184.429688 0.660156 183.398438 1.722656 C 182.40625 2.75 160.378906 25.726562 146.667969 59.714844 C 118.203125 36.664062 87.804688 27.285156 86.441406 26.871094 C 85.027344 26.441406 83.5 26.605469 82.207031 27.324219 C 80.914062 28.039062 79.96875 29.253906 79.582031 30.683594 C 79.199219 32.105469 70.589844 64.796875 76.050781 102.636719 C 38.457031 96.28125 5.675781 104.082031 4.25 104.429688 C 2.8125 104.78125 1.578125 105.695312 0.828125 106.972656 C 0.0820312 108.25 -0.121094 109.773438 0.273438 111.203125 C 0.679688 112.671875 10.496094 147.585938 36.382812 178.253906 C 46.660156 190.425781 58.140625 200.289062 70.511719 207.566406 C 71.441406 208.117188 72.289062 208.601562 73.097656 209.042969 C 73.847656 209.460938 74.601562 209.875 75.351562 210.269531 C 75.492188 210.339844 75.636719 210.414062 75.777344 210.488281 C 76.382812 210.808594 77.015625 211.132812 77.707031 211.472656 C 80.273438 212.757812 82.914062 213.960938 85.535156 215.050781 C 85.820312 215.167969 86.101562 215.285156 86.367188 215.390625 C 89.96875 216.863281 93.769531 218.21875 97.664062 219.410156 C 98.449219 219.652344 99.246094 219.890625 100.023438 220.113281 C 100.375 220.21875 100.722656 220.316406 101.074219 220.414062 L 101.28125 220.46875 C 101.71875 220.59375 102.15625 220.714844 102.597656 220.832031 C 103.398438 221.046875 104.199219 221.253906 104.996094 221.453125 C 106.648438 221.867188 108.371094 222.265625 110.128906 222.644531 C 110.484375 222.722656 110.832031 222.792969 111.1875 222.863281 C 117.191406 224.105469 123.5 225.039062 129.914062 225.625 C 130.203125 225.65625 130.488281 225.675781 130.777344 225.703125 L 130.984375 225.722656 C 132.847656 225.882812 134.742188 226.015625 136.773438 226.125 C 137.132812 226.144531 137.5 226.164062 137.855469 226.183594 C 137.863281 226.183594 137.898438 226.183594 137.90625 226.183594 L 138.234375 226.199219 C 138.492188 226.214844 138.75 226.222656 139.015625 226.234375 C 139.382812 226.253906 139.75 226.265625 140.109375 226.28125 C 142.507812 226.367188 144.964844 226.414062 147.433594 226.414062 C 147.835938 226.414062 148.238281 226.410156 148.636719 226.410156 C 148.976562 226.410156 149.324219 226.40625 149.683594 226.402344 C 150.710938 226.390625 151.722656 226.367188 152.75 226.34375 L 153.09375 226.335938 C 153.316406 226.328125 153.535156 226.324219 153.726562 226.316406 C 154.066406 226.304688 154.410156 226.296875 154.757812 226.28125 C 155.074219 226.273438 155.390625 226.261719 155.679688 226.246094 C 156.011719 226.234375 156.34375 226.222656 156.675781 226.203125 C 156.988281 226.191406 157.300781 226.175781 157.605469 226.160156 C 161.132812 225.988281 164.6875 225.722656 168.175781 225.371094 C 168.453125 225.347656 168.730469 225.316406 169.003906 225.289062 C 169.402344 225.246094 169.796875 225.203125 170.183594 225.160156 L 170.34375 225.144531 C 170.605469 225.117188 170.867188 225.085938 171.125 225.054688 C 174.707031 224.644531 178.222656 224.148438 181.570312 223.574219 L 181.636719 223.566406 C 181.914062 223.519531 182.191406 223.472656 182.457031 223.425781 C 182.625 223.394531 182.792969 223.363281 182.957031 223.335938 L 182.988281 223.328125 C 183.242188 223.28125 183.488281 223.238281 183.726562 223.195312 C 183.742188 223.191406 183.757812 223.191406 183.777344 223.1875 C 185.359375 222.894531 186.578125 222.644531 187.382812 222.46875 C 188.1875 222.644531 189.402344 222.894531 190.984375 223.1875 C 191.003906 223.191406 191.023438 223.191406 191.039062 223.195312 C 191.273438 223.238281 191.523438 223.28125 191.796875 223.332031 C 191.960938 223.363281 192.132812 223.394531 192.304688 223.421875 C 192.566406 223.472656 192.839844 223.519531 193.117188 223.566406 L 193.195312 223.578125 C 196.539062 224.148438 200.054688 224.644531 203.636719 225.054688 C 203.890625 225.085938 204.148438 225.117188 204.414062 225.144531 L 204.578125 225.160156 C 204.96875 225.203125 205.363281 225.246094 205.761719 225.289062 C 206.03125 225.316406 206.308594 225.347656 206.585938 225.371094 C 210.074219 225.722656 213.628906 225.988281 217.15625 226.160156 C 217.460938 226.175781 217.773438 226.191406 218.085938 226.203125 C 218.421875 226.222656 218.75 226.234375 219.058594 226.246094 C 219.375 226.261719 219.691406 226.273438 220.003906 226.28125 C 220.347656 226.296875 220.695312 226.304688 221.011719 226.316406 C 221.226562 226.324219 221.445312 226.328125 221.667969 226.335938 L 222.039062 226.34375 C 223.039062 226.367188 224.050781 226.390625 225.097656 226.402344 C 225.4375 226.40625 225.78125 226.410156 226.125 226.410156 C 226.527344 226.410156 226.925781 226.414062 227.328125 226.414062 C 229.796875 226.414062 232.253906 226.367188 234.652344 226.28125 C 235.019531 226.265625 235.386719 226.253906 235.753906 226.234375 C 236.011719 226.222656 236.269531 226.214844 236.53125 226.199219 L 236.925781 226.183594 C 237.28125 226.164062 237.636719 226.144531 237.984375 226.125 C 240.023438 226.015625 241.917969 225.882812 243.769531 225.722656 L 243.988281 225.703125 C 244.273438 225.675781 244.558594 225.65625 244.824219 225.625 C 251.257812 225.039062 257.570312 224.109375 263.574219 222.863281 C 263.929688 222.792969 264.28125 222.722656 264.640625 222.644531 C 266.390625 222.265625 268.117188 221.867188 269.757812 221.453125 C 270.5625 221.253906 271.363281 221.046875 272.167969 220.832031 C 272.605469 220.714844 273.046875 220.59375 273.5 220.46875 L 273.699219 220.410156 C 274.046875 220.3125 274.394531 220.214844 274.722656 220.121094 C 275.507812 219.890625 276.3125 219.65625 277.097656 219.414062 C 280.988281 218.21875 284.792969 216.863281 288.371094 215.398438 C 288.660156 215.285156 288.941406 215.167969 289.210938 215.054688 C 291.84375 213.964844 294.484375 212.757812 297.046875 211.480469 C 297.742188 211.132812 298.378906 210.808594 298.984375 210.488281 C 299.128906 210.414062 299.273438 210.339844 299.425781 210.257812 C 300.15625 209.875 300.910156 209.46875 301.664062 209.046875 C 302.46875 208.601562 303.320312 208.117188 304.25 207.566406 C 316.621094 200.289062 328.101562 190.425781 338.378906 178.253906 C 364.265625 147.585938 374.085938 112.671875 374.488281 111.199219 C 374.882812 109.773438 374.679688 108.25 373.929688 106.972656 " fill-opacity="1" fill-rule="nonzero"/></g></svg>